<svg xmlns="http://www.w3.org/2000/svg" xmlns:xlink="http://www.w3.org/1999/xlink" id="Logo" x="0px" y="0px" viewBox="0 0 561 240" style="enable-background:new 0 0 561 240;" xml:space="preserve"><style type="text/css">	.st0{fill:#195D1A;}	.st1{fill:#FEC700;}	.st2{fill:#AAC800;}	.st3{fill:#3FAB32;}</style><path class="st0" d="M102.2,7.8v68.5c-3.6-3.9-8.1-7.3-13.6-10.2c-7.2-3.9-15.7-5.8-25.4-5.8c-11,0-20.7,2.6-29,7.9 S19.5,80.9,14.9,90.4C10.3,100,8,111.1,8,123.7s2.3,23.8,6.9,33.3c4.6,9.5,11.1,16.9,19.4,22.2c8.3,5.3,18,7.9,29,7.9 c9,0,16.9-1.6,23.4-4.9c6.6-3.3,12-7.3,16.3-12.1l2,15.3h25.1V7.8H102.2L102.2,7.8z M97.7,144.6c-3,5.7-7,10-11.8,12.9 c-4.9,3-10.1,4.4-15.9,4.4c-9.5,0-17.3-3.5-23.2-10.6s-8.9-16.3-8.9-27.6s3-20.6,8.9-27.6c5.9-7.1,13.6-10.6,23.2-10.6 c5.8,0,11.1,1.5,15.9,4.4c4.9,3,8.8,7.3,11.8,12.9c3,5.7,4.6,12.6,4.6,20.8S100.7,138.9,97.7,144.6z"></path><path class="st0" d="M180.9,43.3c-5.1,0-9.4-1.7-12.8-5.2s-5.2-7.6-5.2-12.3c0-5.1,1.7-9.4,5.2-12.8c3.5-3.4,7.7-5.2,12.8-5.2 s9.1,1.7,12.6,5.2s5.2,7.7,5.2,12.8c0,4.8-1.7,8.9-5.2,12.3C190,41.6,185.8,43.3,180.9,43.3z M166.8,62.1h27.9v123.3h-27.9V62.1 L166.8,62.1z"></path><path class="st0" d="M346.5,90.3c-4.7-9.4-11.2-16.8-19.5-22.1c-8.3-5.3-17.8-7.9-28.5-7.9c-9.4,0-17.3,1.6-23.9,4.9 c-6.6,3.3-11.9,7.3-16,12.1l-2-15.3h-25.1v172.6h27.9v-63.6c3.6,3.9,8.1,7.3,13.6,10.2c7.2,3.9,15.8,5.8,25.6,5.8 c10.9,0,20.4-2.6,28.6-7.9c8.2-5.3,14.7-12.7,19.4-22.2s7-20.6,7-33.3S351.1,99.8,346.5,90.3L346.5,90.3z M314.6,151.3 c-6,7.1-13.7,10.6-23,10.6c-5.9,0-11.3-1.5-16.1-4.4s-8.8-7.3-11.7-12.9s-4.4-12.6-4.4-20.8s1.5-15.4,4.4-21s6.9-9.9,11.7-12.8 s10.2-4.4,16.1-4.4c9.4,0,17,3.5,23,10.6c6,7.1,9,16.3,9,27.6S320.6,144.3,314.6,151.3L314.6,151.3z"></path><rect x="407.2" y="37.5" class="st1" width="29.5" height="29.5"></rect><path class="st0" d="M466.3,8v29.5h-29.5V13.1C446,9.8,455.9,8,466.3,8z"></path><rect x="466.3" y="8" class="st2" width="29.5" height="29.5"></rect><rect x="436.8" y="37.5" class="st2" width="29.5" height="29.5"></rect><rect x="466.3" y="37.5" class="st3" width="29.5" height="29.5"></rect><rect x="407.2" y="67" class="st3" width="29.5" height="29.5"></rect><rect x="495.8" y="8" class="st3" width="29.5" height="29.5"></rect><rect x="495.8" y="37.5" class="st0" width="29.5" height="29.5"></rect><rect x="436.8" y="67" class="st0" width="29.5" height="29.5"></rect><path class="st1" d="M495.8,67v24.5c-9.2,3.3-19.2,5.1-29.5,5.1V67H495.8z"></path><path class="st2" d="M436.8,13.1v24.5h-29.5v-6.9C415.8,23,425.8,17,436.8,13.1z"></path><path class="st2" d="M407.2,30.6v6.9h-6.9C402.5,35.1,404.8,32.8,407.2,30.6z"></path><path class="st3" d="M407.2,37.5V67h-24.5c1.8-5.2,4.1-10.1,6.8-14.8c3.1-5.3,6.7-10.2,10.7-14.8C400.3,37.5,407.2,37.5,407.2,37.5z "></path><path class="st2" d="M407.2,67v29.5h-29.5c0-10.3,1.8-20.3,5-29.5H407.2z"></path><path class="st2" d="M525.3,67V74c-8.5,7.6-18.5,13.6-29.5,17.5V67H525.3z"></path><path class="st2" d="M532.2,67c-2.2,2.4-4.5,4.8-6.9,6.9V67H532.2z"></path><path class="st3" d="M549.8,37.5c-1.8,5.2-4.1,10.1-6.8,14.8c-3.1,5.3-6.7,10.2-10.7,14.8h-6.9V37.5 C525.3,37.5,549.8,37.5,549.8,37.5z"></path><path class="st2" d="M554.8,8c0,10.3-1.8,20.3-5,29.5h-24.5V8H554.8L554.8,8z"></path></svg>